<svg xmlns="http://www.w3.org/2000/svg" width="511" height="285" viewBox="0 0 511 285">
    <g>
        <path d="M 20.00,242.03 L 20.00,211.00 L 30.51,211.00 L 41.03,211.00 L 40.76,241.75 L 40.50,272.50 L 30.25,272.78 L 20.00,273.07 L 20.00,242.03 M 59.00,260.53 L 59.00,248.00 L 51.50,248.00 L 44.00,248.00 L 44.00,241.50 L 44.00,235.00 L 51.50,235.00 L 59.00,235.00 L 59.00,223.00 L 59.00,211.00 L 69.51,211.00 L 80.03,211.00 L 79.76,241.75 L 79.50,272.50 L 69.25,272.78 L 59.00,273.07 L 59.00,260.53 M 86.00,272.06 C86.00,271.12 106.86,214.81 107.42,214.25 C107.91,213.76 116.00,236.84 115.98,238.65 C115.96,239.67 113.57,247.70 110.67,256.50 L 105.38,272.50 L 95.69,272.79 C89.61,272.97 86.00,272.69 86.00,272.06 M 132.44,269.50 L 130.97,266.00 L 120.92,266.00 C109.61,266.00 110.44,266.89 113.49,258.00 C114.63,254.68 114.97,254.47 120.09,254.00 C124.20,253.62 125.43,253.14 125.20,252.00 C125.03,251.18 121.79,242.40 117.99,232.50 C114.19,222.60 110.79,213.71 110.44,212.75 C109.84,211.16 110.68,211.00 119.73,211.00 L 129.68,211.00 L 141.30,240.25 C147.69,256.34 153.21,270.29 153.57,271.25 C154.16,272.84 153.31,273.00 144.06,273.00 L 133.90,273.00 L 132.44,269.50 M 160.70,272.37 C160.32,271.98 160.00,258.02 160.00,241.33 L 160.00,211.00 L 170.51,211.00 L 181.03,211.00 L 180.76,241.75 L 180.50,272.50 L 170.95,272.78 C165.70,272.94 161.09,272.75 160.70,272.37 M 195.53,263.50 C191.17,254.11 191.08,254.00 187.56,254.00 L 184.00,254.00 L 184.00,248.00 L 184.00,242.00 L 191.50,242.00 L 199.00,242.00 L 199.00,232.50 L 199.00,223.00 L 191.50,223.00 L 184.00,223.00 L 184.00,217.00 L 184.00,211.00 L 195.78,211.00 L 207.56,211.00 L 213.78,217.28 L 220.00,223.55 L 220.00,232.57 L 220.00,241.58 L 215.56,245.94 C212.31,249.13 210.23,250.35 207.81,250.48 C200.08,250.90 191.00,252.34 191.00,253.14 C191.00,254.35 207.75,254.22 208.50,253.00 C208.84,252.45 209.47,252.00 209.89,252.00 C210.73,252.00 221.00,270.55 221.00,272.07 C221.00,272.58 216.26,273.00 210.47,273.00 L 199.93,273.00 L 195.53,263.50 M 229.70,272.37 C229.32,271.98 229.00,258.02 229.00,241.33 L 229.00,211.00 L 239.51,211.00 L 250.03,211.00 L 249.76,241.75 L 249.50,272.50 L 239.95,272.78 C234.70,272.94 230.09,272.75 229.70,272.37 M 253.00,266.50 L 253.00,260.00 L 260.50,260.00 L 268.00,260.00 L 268.00,241.39 L 268.00,222.78 L 260.50,223.16 L 253.00,223.54 L 253.00,217.27 L 253.00,211.00 L 264.78,211.00 L 276.56,211.00 L 282.78,217.28 L 289.00,223.55 L 289.00,242.13 L 289.00,260.71 L 282.09,266.85 L 275.17,273.00 L 264.09,273.00 L 253.00,273.00 L 253.00,266.50 M 298.70,272.37 C298.32,271.98 298.00,258.02 298.00,241.33 L 298.00,211.00 L 308.51,211.00 L 319.03,211.00 L 318.76,241.75 L 318.50,272.50 L 308.95,272.78 C303.70,272.94 299.09,272.75 298.70,272.37 M 322.00,266.53 L 322.00,260.00 L 326.94,260.00 L 331.88,260.00 L 332.19,256.25 L 332.50,252.50 L 341.50,252.50 L 350.50,252.50 L 350.50,262.50 L 350.50,272.50 L 336.25,272.78 L 322.00,273.05 L 322.00,266.53 M 361.75,266.26 L 355.00,259.45 L 355.00,241.52 L 355.00,223.59 L 361.45,217.29 L 367.90,211.00 L 376.00,211.00 L 384.10,211.00 L 383.80,217.25 L 383.50,223.50 L 380.00,223.55 L 376.50,223.60 L 376.23,241.80 L 375.95,260.00 L 380.03,260.00 L 384.10,260.00 L 383.80,266.25 L 383.50,272.50 L 376.00,272.78 L 368.50,273.07 L 361.75,266.26 M 387.00,266.50 L 387.00,260.00 L 391.02,260.00 L 395.05,260.00 L 394.77,241.77 C394.51,224.33 394.41,223.53 392.50,223.44 C386.86,223.17 387.00,223.33 387.00,217.00 L 387.00,211.00 L 395.29,211.00 L 403.58,211.00 L 409.29,216.95 L 415.00,222.91 L 415.00,241.73 L 415.00,260.56 L 408.72,266.78 L 402.45,273.00 L 394.72,273.00 L 387.00,273.00 L 387.00,266.50 M 431.22,266.72 L 425.00,260.45 L 425.00,241.94 L 425.00,223.44 L 431.28,217.22 C436.72,211.83 438.05,211.00 441.28,211.00 L 445.00,211.00 L 445.00,235.50 L 445.00,260.00 L 454.00,260.00 L 463.00,260.00 L 463.00,266.50 L 463.00,273.00 L 450.22,273.00 L 437.44,273.00 L 431.22,266.72 M 466.67,272.33 C466.30,271.97 466.00,267.04 466.00,261.39 L 466.00,251.11 L 461.25,250.80 L 456.50,250.50 L 456.50,244.65 L 456.50,238.79 L 470.25,238.44 L 484.00,238.09 L 484.00,255.55 L 484.00,273.00 L 475.67,273.00 C471.08,273.00 467.03,272.70 466.67,272.33 M 465.75,229.31 C464.59,229.01 464.00,227.87 464.00,225.93 L 464.00,223.00 L 456.50,223.00 L 449.00,223.00 L 449.00,217.00 L 449.00,211.00 L 461.28,211.00 L 473.56,211.00 L 478.78,216.93 C482.99,221.72 484.00,223.56 484.00,226.43 L 484.00,230.00 L 475.75,229.88 C471.21,229.82 466.71,229.56 465.75,229.31 M 143.47,181.75 C143.21,181.06 142.88,147.65 142.75,107.50 L 142.50,34.50 L 137.50,34.00 L 132.50,33.50 L 132.50,29.50 L 132.50,25.50 L 137.71,25.20 L 142.92,24.90 L 143.21,17.20 L 143.50,9.50 L 150.91,9.20 C156.17,8.99 158.56,9.28 159.15,10.20 C159.60,10.92 159.98,14.53 159.98,18.24 L 160.00,24.98 L 200.75,25.24 L 241.50,25.50 L 241.50,29.50 L 241.50,33.50 L 235.75,33.80 C230.22,34.09 230.00,34.20 230.00,36.85 C230.00,40.59 228.31,42.00 223.80,42.00 C220.14,42.00 220.00,42.12 220.00,45.44 C220.00,47.79 220.66,49.35 222.06,50.33 C224.30,51.90 226.90,60.86 226.96,67.21 C227.00,70.79 227.45,71.25 240.37,80.90 C253.72,90.88 253.76,90.90 260.12,91.20 L 266.50,91.50 L 266.50,96.00 C266.50,99.91 266.20,100.54 264.25,100.82 L 262.00,101.14 L 262.00,124.07 L 262.00,147.00 L 264.50,147.00 C266.52,147.00 267.00,147.49 267.00,149.58 C267.00,151.00 267.47,152.01 268.04,151.82 C268.70,151.60 269.16,144.56 269.29,132.49 L 269.50,113.50 L 284.03,113.22 L 298.56,112.95 L 309.28,123.83 L 320.00,134.70 L 320.00,151.82 C320.00,171.27 320.27,170.68 311.53,170.75 C308.80,170.78 306.44,171.18 306.28,171.65 C304.87,175.87 301.90,179.82 298.95,181.40 C292.37,184.92 283.77,181.11 282.36,174.05 C281.54,169.96 280.02,169.77 251.45,170.17 L 227.58,170.50 L 226.87,173.98 C224.66,184.82 209.37,185.68 204.53,175.25 C202.90,171.74 202.07,171.00 199.78,171.00 C197.66,171.00 197.00,171.48 197.00,173.01 C197.00,174.12 195.46,176.71 193.58,178.76 C190.47,182.15 189.67,182.50 185.00,182.50 C180.33,182.50 179.53,182.15 176.42,178.76 C174.54,176.71 173.00,174.12 173.00,173.01 C173.00,171.51 172.30,170.97 170.25,170.87 C165.28,170.64 162.95,170.28 162.30,169.64 C161.96,169.29 162.50,165.38 163.51,160.94 C165.21,153.53 165.58,152.83 168.12,152.33 C169.96,151.96 170.99,151.06 171.20,149.64 C171.39,148.30 172.35,147.38 173.75,147.18 L 176.00,146.86 L 176.00,124.00 L 176.00,101.14 L 173.75,100.82 C171.80,100.54 171.50,99.91 171.50,96.00 L 171.50,91.50 L 178.00,91.20 C183.10,90.96 185.04,90.40 187.00,88.61 C188.38,87.35 191.07,85.26 193.00,83.96 C194.93,82.66 199.50,79.19 203.17,76.25 L 209.83,70.91 L 210.33,64.70 C211.04,55.81 211.95,52.36 214.10,50.41 C215.25,49.37 216.00,47.36 216.00,45.35 C216.00,42.24 215.77,42.00 212.75,41.98 C208.42,41.96 207.25,41.07 206.84,37.50 L 206.50,34.50 L 183.25,34.23 L 160.00,33.96 L 160.00,106.90 C160.00,147.01 159.73,180.55 159.39,181.42 C158.91,182.66 157.21,183.00 151.36,183.00 C146.34,183.00 143.79,182.60 143.47,181.75 M 152.50,178.00 C152.16,177.45 151.46,177.00 150.94,177.00 C150.42,177.00 150.00,177.45 150.00,178.00 C150.00,178.55 150.70,179.00 151.56,179.00 C152.42,179.00 152.84,178.55 152.50,178.00 M 156.00,173.00 C156.00,172.45 155.55,172.00 155.00,172.00 C154.45,172.00 154.00,172.45 154.00,173.00 C154.00,173.55 154.45,174.00 155.00,174.00 C155.55,174.00 156.00,173.55 156.00,173.00 M 187.80,170.88 C188.11,168.23 186.04,166.81 183.25,167.75 C181.91,168.20 181.53,172.20 182.71,173.38 C184.34,175.00 187.51,173.45 187.80,170.88 M 218.79,171.87 C219.29,169.23 216.23,166.81 213.93,168.04 C212.02,169.06 211.34,172.01 212.71,173.38 C213.99,174.66 218.47,173.54 218.79,171.87 M 296.81,171.32 C297.23,168.39 293.96,166.57 291.52,168.36 C290.28,169.27 289.96,170.31 290.46,171.88 C291.43,174.94 296.36,174.51 296.81,171.32 M 153.38,166.87 C154.71,164.97 154.70,164.47 153.28,162.30 L 151.69,159.87 L 149.66,161.90 C147.85,163.71 147.77,164.21 148.98,166.47 C150.64,169.56 151.45,169.63 153.38,166.87 M 174.99,164.01 C176.40,161.38 181.15,159.00 185.00,159.00 C188.85,159.00 193.60,161.38 195.01,164.01 C196.83,167.42 202.51,166.67 207.26,162.39 C210.99,159.02 211.61,158.80 216.32,159.26 C220.39,159.65 221.93,160.35 224.18,162.87 L 226.97,166.00 L 248.28,166.00 L 269.58,166.00 L 269.39,161.25 L 269.20,156.50 L 219.15,156.24 L 169.10,155.98 L 168.06,159.74 C166.46,165.49 166.65,166.00 170.46,166.00 C172.90,166.00 174.25,165.41 174.99,164.01 M 285.42,162.38 C288.85,158.95 289.33,158.78 294.22,159.25 C298.42,159.65 299.91,160.33 302.22,162.92 C304.80,165.80 305.53,166.07 310.04,165.80 C312.78,165.64 315.02,165.16 315.01,164.75 C315.01,164.34 315.00,159.50 315.00,154.00 L 315.00,144.00 L 297.08,144.00 C287.23,144.00 278.45,143.73 277.58,143.39 C276.25,142.88 276.00,140.73 276.00,129.89 C276.00,118.72 275.79,117.00 274.39,117.00 C273.34,117.00 272.99,117.54 273.39,118.58 C273.73,119.45 274.00,130.48 274.00,143.08 L 274.00,166.00 L 277.90,166.00 C281.05,166.00 282.50,165.30 285.42,162.38 M 147.68,155.81 C147.36,155.01 147.13,155.25 147.08,156.42 C147.04,157.47 147.27,158.06 147.60,157.73 C147.94,157.40 147.97,156.53 147.68,155.81 M 153.61,146.55 C151.80,143.80 150.68,143.68 149.18,146.08 C148.08,147.84 148.14,148.57 149.57,150.74 L 151.25,153.32 L 153.08,150.91 C154.61,148.88 154.70,148.19 153.61,146.55 M 241.25,151.25 C229.01,151.09 208.99,151.09 196.75,151.25 C184.51,151.41 194.52,151.54 219.00,151.54 C243.48,151.54 253.49,151.41 241.25,151.25 M 257.77,123.75 L 258.04,101.00 L 219.02,101.00 L 180.00,101.00 L 180.00,124.01 L 180.00,147.02 L 218.75,146.76 L 257.50,146.50 L 257.77,123.75 M 156.00,140.00 C156.00,139.45 155.55,139.00 155.00,139.00 C154.45,139.00 154.00,139.45 154.00,140.00 C154.00,140.55 154.45,141.00 155.00,141.00 C155.55,141.00 156.00,140.55 156.00,140.00 M 315.76,138.21 C316.00,137.50 311.79,132.44 306.41,126.96 L 296.63,117.00 L 288.31,117.00 L 280.00,117.00 L 280.00,128.52 L 280.00,140.05 L 297.67,139.77 C311.02,139.57 315.44,139.18 315.76,138.21 M 153.38,133.87 C154.71,131.97 154.70,131.47 153.28,129.30 L 151.69,126.87 L 149.66,128.90 C147.85,130.71 147.77,131.21 148.98,133.47 C150.64,136.56 151.45,136.63 153.38,133.87 M 147.68,122.81 C147.36,122.01 147.13,122.25 147.08,123.42 C147.04,124.47 147.27,125.06 147.60,124.73 C147.94,124.40 147.97,123.53 147.68,122.81 M 153.32,117.19 C154.80,115.56 154.81,115.18 153.42,113.19 C151.43,110.35 150.22,110.42 148.83,113.47 C147.97,115.36 148.00,116.30 148.98,117.47 C150.61,119.44 151.33,119.40 153.32,117.19 M 155.50,107.00 C155.84,106.45 155.64,106.00 155.06,106.00 C154.48,106.00 154.00,106.45 154.00,107.00 C154.00,107.55 154.20,108.00 154.44,108.00 C154.68,108.00 155.16,107.55 155.50,107.00 M 153.38,100.87 C154.71,98.97 154.70,98.47 153.28,96.30 L 151.69,93.87 L 149.66,95.90 C147.85,97.71 147.77,98.21 148.98,100.47 C150.64,103.56 151.45,103.63 153.38,100.87 M 263.00,96.00 C263.00,95.35 247.67,95.00 219.00,95.00 C190.33,95.00 175.00,95.35 175.00,96.00 C175.00,96.65 190.33,97.00 219.00,97.00 C247.67,97.00 263.00,96.65 263.00,96.00 M 147.68,89.81 C147.36,89.01 147.13,89.25 147.08,90.42 C147.04,91.47 147.27,92.06 147.60,91.73 C147.94,91.40 147.97,90.53 147.68,89.81 M 156.00,90.00 C156.00,89.45 155.55,89.00 155.00,89.00 C154.45,89.00 154.00,89.45 154.00,90.00 C154.00,90.55 154.45,91.00 155.00,91.00 C155.55,91.00 156.00,90.55 156.00,90.00 M 245.45,90.08 C243.55,88.25 226.55,76.00 225.91,76.00 C225.54,76.00 223.73,76.61 221.87,77.35 C220.02,78.09 216.07,78.80 213.10,78.93 C207.32,79.18 203.88,80.90 196.16,87.36 L 191.81,91.00 L 219.11,91.00 C235.68,91.00 246.03,90.64 245.45,90.08 M 153.42,83.69 C154.56,81.89 153.39,78.96 151.25,78.25 C149.34,77.61 147.77,81.71 149.03,84.06 C150.26,86.36 151.82,86.23 153.42,83.69 M 219.42,74.39 C221.02,73.78 221.66,71.00 220.20,71.00 C219.17,71.00 217.00,73.17 217.00,74.20 C217.00,75.16 217.35,75.19 219.42,74.39 M 153.61,63.55 C151.72,60.68 150.52,60.66 149.02,63.47 C147.84,65.67 147.90,66.23 149.54,68.04 L 151.41,70.11 L 153.15,67.80 C154.62,65.87 154.69,65.19 153.61,63.55 M 216.56,66.91 C216.93,66.30 218.31,66.02 219.62,66.27 C221.64,66.65 222.00,66.32 222.00,64.11 C222.00,61.73 221.65,61.50 218.00,61.50 C214.15,61.50 214.00,61.62 214.00,64.75 C214.00,67.97 215.25,69.02 216.56,66.91 M 156.00,57.00 C156.00,56.45 155.55,56.00 155.00,56.00 C154.45,56.00 154.00,56.45 154.00,57.00 C154.00,57.55 154.45,58.00 155.00,58.00 C155.55,58.00 156.00,57.55 156.00,57.00 M 220.44,57.09 C221.41,55.53 219.83,52.89 218.12,53.21 C217.23,53.38 216.36,54.53 216.18,55.76 C215.94,57.44 216.36,58.00 217.87,58.00 C218.98,58.00 220.13,57.59 220.44,57.09 M 153.42,50.69 C154.56,48.89 153.39,45.96 151.25,45.25 C149.34,44.61 147.77,48.71 149.03,51.06 C150.26,53.36 151.82,53.23 153.42,50.69 M 147.68,39.81 C147.36,39.01 147.13,39.25 147.08,40.42 C147.04,41.47 147.27,42.06 147.60,41.73 C147.94,41.40 147.97,40.53 147.68,39.81 M 225.50,36.00 C225.50,34.83 223.90,34.44 218.25,34.21 C211.47,33.93 211.00,34.05 211.00,36.00 C211.00,37.95 211.47,38.07 218.25,37.79 C223.90,37.56 225.50,37.17 225.50,36.00 M 152.77,35.19 C152.99,34.53 152.45,34.00 151.58,34.00 C150.71,34.00 150.00,34.71 150.00,35.58 C150.00,37.35 152.15,37.04 152.77,35.19 M 212.32,29.25 C198.47,29.09 175.52,29.09 161.32,29.25 C147.12,29.41 158.45,29.54 186.50,29.54 C214.55,29.54 226.17,29.41 212.32,29.25 M 147.68,19.81 C147.36,19.01 147.13,19.25 147.08,20.42 C147.04,21.47 147.27,22.06 147.60,21.73 C147.94,21.40 147.97,20.53 147.68,19.81 M 156.00,20.00 C156.00,19.45 155.55,19.00 155.00,19.00 C154.45,19.00 154.00,19.45 154.00,20.00 C154.00,20.55 154.45,21.00 155.00,21.00 C155.55,21.00 156.00,20.55 156.00,20.00 M 152.77,14.19 C152.99,13.53 152.25,13.00 151.11,13.00 C149.68,13.00 149.24,13.46 149.65,14.54 C150.31,16.25 152.15,16.04 152.77,14.19 M 278.00,148.00 C278.00,146.38 278.67,146.00 281.50,146.00 C284.33,146.00 285.00,146.38 285.00,148.00 C285.00,149.62 284.33,150.00 281.50,150.00 C278.67,150.00 278.00,149.62 278.00,148.00 M 186.23,123.83 C186.46,109.21 186.73,106.50 188.00,106.50 C189.27,106.50 189.50,109.05 189.50,123.49 C189.50,138.96 189.34,140.50 187.73,140.81 C186.07,141.13 185.97,139.96 186.23,123.83 M 194.00,124.13 C194.00,114.77 194.40,106.87 194.89,106.57 C197.37,105.04 198.04,109.27 197.78,124.62 C197.53,138.80 197.31,140.51 195.75,140.81 C194.14,141.12 194.00,139.80 194.00,124.13 M 201.67,140.33 C201.30,139.97 201.00,132.60 201.00,123.96 C201.00,112.03 201.32,107.98 202.34,107.13 C203.08,106.52 203.98,106.31 204.34,106.68 C204.70,107.04 205.00,114.91 205.00,124.17 C205.00,137.53 204.72,141.00 203.67,141.00 C202.93,141.00 202.03,140.70 201.67,140.33 M 209.23,123.75 C209.46,109.20 209.74,106.50 211.00,106.50 C212.26,106.50 212.54,109.20 212.77,123.75 C213.04,140.56 212.99,141.00 211.00,141.00 C209.01,141.00 208.96,140.56 209.23,123.75 M 217.23,123.83 C217.46,109.21 217.73,106.50 219.00,106.50 C220.27,106.50 220.50,109.05 220.50,123.49 C220.50,138.96 220.34,140.50 218.73,140.81 C217.07,141.13 216.97,139.96 217.23,123.83 M 225.00,124.13 C225.00,114.77 225.40,106.87 225.89,106.57 C228.37,105.04 229.04,109.27 228.78,124.62 C228.53,138.80 228.31,140.51 226.75,140.81 C225.14,141.12 225.00,139.80 225.00,124.13 M 232.70,140.37 C232.32,139.98 232.00,132.60 232.00,123.96 C232.00,111.55 232.30,108.00 233.43,107.06 C236.24,104.73 237.07,109.21 236.78,125.22 C236.54,138.05 236.25,140.52 234.95,140.77 C234.10,140.94 233.09,140.75 232.70,140.37 M 240.44,139.71 C240.17,139.00 240.07,131.24 240.22,122.46 C240.46,109.06 240.74,106.50 242.00,106.50 C243.26,106.50 243.54,109.20 243.77,123.75 C244.01,138.81 243.85,141.00 242.49,141.00 C241.64,141.00 240.71,140.42 240.44,139.71 M 248.23,123.83 C248.46,109.21 248.73,106.50 250.00,106.50 C251.27,106.50 251.50,109.05 251.50,123.49 C251.50,138.96 251.34,140.50 249.73,140.81 C248.07,141.13 247.97,139.96 248.23,123.83 Z"
              fill="white"/>
    </g>
</svg>