<svg xmlns="http://www.w3.org/2000/svg" width="349" height="123" viewBox="0 0 349 123">
    <g>
        <path d="M 255.50,103.73 C249.80,101.39 248.00,99.92 245.75,95.72 C243.56,91.62 243.50,90.69 243.50,62.00 C243.50,33.44 243.57,32.37 245.72,28.35 C249.14,21.95 253.93,19.50 263.00,19.50 C272.07,19.50 276.86,21.95 280.28,28.35 C282.43,32.37 282.50,33.44 282.50,62.00 L 282.50,91.50 L 280.00,95.92 C278.41,98.73 276.07,101.07 273.55,102.37 C268.88,104.78 259.75,105.46 255.50,103.73 M 268.00,91.00 C269.90,89.10 270.00,87.67 270.00,62.00 C270.00,36.33 269.90,34.90 268.00,33.00 C265.43,30.43 260.57,30.43 258.00,33.00 C256.10,34.90 256.00,36.33 256.00,62.00 C256.00,87.67 256.10,89.10 258.00,91.00 C259.11,92.11 261.33,93.00 263.00,93.00 C264.67,93.00 266.89,92.11 268.00,91.00 M 302.50,103.50 C297.24,101.65 293.33,96.86 291.95,90.58 C291.23,87.31 290.95,76.04 291.17,59.00 C291.48,34.44 291.65,32.21 293.59,28.50 C297.30,21.38 305.04,18.03 314.51,19.45 C324.37,20.93 330.00,28.47 330.00,40.21 L 330.00,47.00 L 324.00,47.00 L 318.00,47.00 L 318.00,41.00 C318.00,34.01 315.89,31.00 311.00,31.00 C309.33,31.00 307.11,31.89 306.00,33.00 C304.10,34.90 304.00,36.33 304.00,62.00 C304.00,87.67 304.10,89.10 306.00,91.00 C307.11,92.11 309.33,93.00 311.00,93.00 C316.71,93.00 318.00,90.34 318.00,78.50 L 318.00,68.00 L 314.50,68.00 L 311.00,68.00 L 311.00,62.00 L 311.00,56.00 L 320.50,56.00 L 330.00,56.00 L 329.99,72.25 C329.99,81.19 329.49,90.28 328.89,92.45 C326.11,102.46 313.97,107.54 302.50,103.50 M 8.00,62.00 L 8.00,19.90 L 14.25,20.20 L 20.50,20.50 L 20.77,37.25 L 21.05,54.00 L 28.02,54.00 L 35.00,54.00 L 35.00,37.00 L 35.00,20.00 L 41.50,20.00 L 48.00,20.00 L 48.00,62.00 L 48.00,104.00 L 41.50,104.00 L 35.00,104.00 L 35.00,85.00 L 35.00,66.00 L 28.02,66.00 L 21.04,66.00 L 20.77,84.75 L 20.50,103.50 L 14.25,103.80 L 8.00,104.10 L 8.00,62.00 M 55.00,103.04 C55.00,102.45 57.92,83.99 61.50,62.00 C65.08,40.01 68.00,21.57 68.00,21.01 C68.00,20.40 71.60,20.00 77.00,20.00 C81.95,20.00 86.00,20.35 86.00,20.78 C86.00,21.21 88.67,37.75 91.94,57.53 C95.21,77.31 98.19,95.89 98.58,98.80 L 99.27,104.10 L 92.89,103.80 L 86.50,103.50 L 85.50,95.50 L 84.50,87.50 L 76.80,87.21 L 69.11,86.92 L 68.55,90.21 C68.25,92.02 67.65,95.75 67.23,98.50 L 66.46,103.50 L 60.73,103.80 C57.17,103.99 55.00,103.70 55.00,103.04 M 82.45,73.25 C82.18,71.74 80.82,62.87 79.44,53.54 C77.28,39.05 76.04,32.94 75.99,36.58 C75.98,37.09 74.85,45.37 73.49,54.99 C72.12,64.61 71.00,73.27 71.00,74.24 C71.00,75.72 71.94,76.00 76.97,76.00 C82.95,76.00 82.95,76.00 82.45,73.25 M 106.00,61.90 L 106.00,19.81 L 119.75,20.15 C131.38,20.45 134.03,20.81 136.96,22.54 C142.20,25.61 144.27,30.00 144.80,39.14 C145.37,48.95 143.76,55.19 139.79,58.53 L 136.85,61.00 L 139.79,63.47 C143.84,66.89 144.91,71.92 145.23,89.25 L 145.50,104.00 L 139.37,104.00 C131.86,104.00 132.03,104.40 132.01,86.68 C132.00,70.10 131.03,68.04 123.25,68.02 L 119.00,68.00 L 119.00,86.00 L 119.00,104.00 L 112.50,104.00 L 106.00,104.00 L 106.00,61.90 M 128.60,55.23 C130.93,53.68 132.00,49.86 132.00,43.07 C132.00,34.23 130.29,32.00 123.50,32.00 L 119.00,32.00 L 119.00,44.00 L 119.00,56.00 L 123.25,55.98 C125.59,55.98 128.00,55.64 128.60,55.23 M 155.00,62.00 L 155.00,20.00 L 166.75,20.04 C183.26,20.11 188.30,22.18 192.12,30.50 C193.76,34.07 193.96,37.43 193.96,62.00 C193.96,86.57 193.76,89.93 192.12,93.50 C188.30,101.82 183.26,103.89 166.75,103.96 L 155.00,104.00 L 155.00,62.00 M 179.17,90.35 C180.85,88.82 181.00,86.60 181.00,62.57 C181.00,31.98 181.00,32.00 172.94,32.00 L 168.00,32.00 L 168.00,62.00 L 168.00,92.00 L 172.67,92.00 C175.61,92.00 178.02,91.39 179.17,90.35 M 203.00,62.00 L 203.00,20.00 L 209.50,20.00 L 216.00,20.00 L 216.00,56.00 L 216.00,92.00 L 227.00,92.00 L 238.00,92.00 L 238.00,98.00 L 238.00,104.00 L 220.50,104.00 L 203.00,104.00 L 203.00,62.00 Z"
              fill="white"/>
    </g>
</svg>